<?xml version="1.0" encoding="UTF-8"?>
<svg id="Layer_2" xmlns="http://www.w3.org/2000/svg" viewBox="0 0 32 32">
  <defs>
    <style>
      .cls-1 {
        fill: #ff4000;
      }
    </style>
  </defs>
  <g id="Layer_1-2" data-name="Layer_1">
    <g>
      <polygon class="cls-1" points="25.32 12.54 21.2 14.52 25.32 16.5 32 19.72 32 24.47 25.32 21.25 16.27 16.9 11.33 14.52 6.68 12.28 0 9.07 0 0 6.68 0 6.68 7.53 16.27 12.14 25.32 7.79 25.32 0 32 0 32 9.32 25.32 12.54"/>
      <polygon class="cls-1" points="32 27.1 32 32 25.32 32 25.32 28.63 8.6 20.59 6.68 21.51 6.68 32 0 32 0 19.97 3.67 18.21 6.68 16.76 8.6 15.83 13.54 18.21 25.32 23.88 32 27.1"/>
    </g>
  </g>
</svg>